<svg width="736" height="123" viewBox="0 0 736 123" fill="none" xmlns="http://www.w3.org/2000/svg">
<path d="M101.557 80.0536L39.3876 6.88296C38.585 5.96904 38.2124 4.998 38.2124 3.94128C38.2124 2.77032 38.6424 1.79928 39.5023 1.08528C40.3335 0.37128 41.48 0 42.9418 0L100.955 0C103.477 0 105.512 0.91392 107.089 2.74176L137.672 37.7277C138.475 38.7845 138.905 40.1553 138.962 41.8689C139.019 43.5825 138.589 44.9534 137.672 46.0101L107.863 79.4539C107.089 80.3964 106.028 80.939 104.71 81.1389C103.391 81.3389 102.36 80.9676 101.557 80.0536Z" fill="#FF5454"/>
<path d="M66.2446 119.781L1.29488 44.8392C0.377675 43.7825 -0.0522673 42.4116 0.00505811 40.7265C0.0910462 39.0129 0.578316 37.6421 1.49552 36.5854L22.4193 12.1951C23.4798 11.0242 24.5977 10.4244 25.7728 10.4244C27.206 10.4244 28.4098 11.0242 29.327 12.1951L94.678 88.9072C95.4519 89.8212 95.8531 90.7922 95.8531 91.7632C95.8531 92.7628 95.4805 93.7053 94.678 94.6192L72.579 119.781C71.7765 120.837 70.7733 121.351 69.5121 121.351C68.251 121.351 67.1618 120.837 66.2446 119.781Z" fill="#FF5454"/>
<g clip-path="url(#clip0_1304_107043)">
<path d="M685.914 101.073C681.051 101.073 676.76 99.9002 673.012 97.5257C669.264 95.1512 666.318 91.9185 664.143 87.7703C661.969 83.6221 660.882 78.9303 660.882 73.695C660.882 68.4311 661.969 63.7679 664.143 59.7055C666.318 55.6431 669.264 52.4962 673.012 50.2362C676.76 48.0047 681.051 46.889 685.914 46.889C693.124 46.889 699.131 49.3779 703.937 54.3844C708.744 59.3908 711.118 65.7991 711.118 73.695C711.118 78.8159 710.031 83.479 707.857 87.6844C705.683 91.8899 702.679 95.1798 698.788 97.5257C694.954 99.8716 690.635 101.073 685.914 101.073ZM582.695 122.529C591.221 122.529 599.002 120.613 606.04 116.808C613.077 113.003 618.599 107.825 622.69 101.245C623.491 100.072 623.148 99.0705 621.717 98.2981L605.554 89.8301C604.238 89.1721 603.179 89.5154 602.407 90.8027C600.833 93.8352 598.23 96.2669 594.625 98.0979C591.02 99.9288 587.158 100.844 583.096 100.844C575.887 100.844 569.936 98.2981 565.273 93.1486C560.61 88.0277 558.293 81.4478 558.293 73.4375C558.293 65.2841 560.667 58.7615 565.387 53.8408C570.108 48.9202 576.03 46.4599 583.125 46.4599C587.988 46.4599 592.279 47.6042 596.027 49.9215C599.775 52.2102 602.521 55.2426 604.295 58.9903C606.068 62.738 606.555 66.7718 605.782 71.1202L606.755 65.3986L554.945 65.3986L557.692 82.3347L626.438 82.3347C627.868 82.3347 628.726 81.6195 628.984 80.1605C629.127 77.786 629.241 75.4401 629.384 73.0656C629.384 64.2829 627.439 56.1581 623.577 48.7485C619.715 41.339 614.25 35.4743 607.213 31.2117C600.175 26.949 592.022 24.8034 582.695 24.8034C573.512 24.8034 565.159 26.9776 557.663 31.2975C550.168 35.6459 544.332 41.5393 540.126 49.0346C535.921 56.53 533.833 64.7406 533.833 73.6664C533.833 82.9927 535.892 91.4035 540.041 98.8703C544.189 106.366 549.968 112.173 557.377 116.293C564.787 120.47 573.226 122.529 582.695 122.529ZM468.434 122.73C473.412 122.73 478.046 121.871 482.309 120.155C486.572 118.438 490.033 116.35 492.665 113.861C495.297 111.372 496.928 109.055 497.586 106.966V118.21C497.586 118.867 497.815 119.44 498.272 119.897C498.73 120.355 499.302 120.584 499.96 120.584H520.043C520.701 120.584 521.245 120.355 521.731 119.897C522.189 119.44 522.418 118.867 522.418 118.21V2.37449C522.418 1.7165 522.189 1.17294 521.731 0.686599C521.273 0.228866 520.701 0 520.043 0L499.96 0C499.302 0 498.73 0.228866 498.272 0.686599C497.815 1.14433 497.586 1.7165 497.586 2.37449V39.1934C496.928 37.763 495.24 35.8748 492.551 33.5861C489.862 31.2975 486.457 29.2663 482.309 27.4926C478.161 25.7189 473.612 24.832 468.606 24.832C460.08 24.832 452.356 26.9776 445.461 31.2403C438.567 35.5029 433.103 41.3676 429.098 48.7772C425.092 56.1867 423.09 64.5117 423.09 73.695C423.09 82.8783 425.092 91.2319 429.098 98.7272C433.103 106.223 438.595 112.087 445.547 116.35C452.528 120.584 460.166 122.73 468.434 122.73ZM472.382 101.073C467.662 101.073 463.37 99.9002 459.565 97.5257C455.76 95.1512 452.757 91.9185 450.611 87.7703C448.437 83.6221 447.35 78.9303 447.35 73.695C447.35 68.4311 448.437 63.7679 450.611 59.7055C452.785 55.6431 455.76 52.4962 459.565 50.2362C463.37 48.0047 467.633 46.889 472.382 46.889C479.591 46.889 485.599 49.3779 490.405 54.3844C495.211 59.3908 497.586 65.7991 497.586 73.695C497.586 78.8159 496.499 83.479 494.324 87.6844C492.15 91.8899 489.146 95.1798 485.256 97.5257C481.394 99.8716 477.102 101.073 472.382 101.073ZM389.618 120.555L409.701 120.555C410.359 120.555 410.903 120.327 411.389 119.869C411.847 119.411 412.076 118.839 412.076 118.181V2.37449C412.076 1.7165 411.847 1.17294 411.389 0.686599C410.931 0.228866 410.359 0 409.701 0L389.618 0C388.96 0 388.417 0.228866 387.93 0.686599C387.472 1.14433 387.244 1.7165 387.244 2.37449V118.21C387.244 118.867 387.472 119.44 387.93 119.897C388.417 120.327 388.96 120.555 389.618 120.555ZM326.193 100.673C318.841 100.673 312.69 98.2123 307.77 93.2917C302.849 88.371 300.389 81.9056 300.389 73.8952C300.389 65.8849 302.849 59.3908 307.77 54.3844C312.69 49.4065 318.841 46.889 326.193 46.889C333.546 46.889 339.697 49.3779 344.617 54.3844C349.538 59.3908 351.998 65.8849 351.998 73.8952C351.998 81.9056 349.566 88.371 344.703 93.2917C339.868 98.2123 333.689 100.673 326.193 100.673ZM326.193 122.73C335.777 122.73 344.388 120.555 351.998 116.236C359.608 111.887 365.559 106.022 369.821 98.6128C374.084 91.2033 376.229 82.9641 376.229 73.8952C376.229 64.8264 374.084 56.5586 369.821 49.0632C365.559 41.5679 359.608 35.6746 351.998 31.3261C344.388 27.0062 335.777 24.832 326.193 24.832C316.61 24.832 307.999 27.0062 300.389 31.3261C292.779 35.6746 286.828 41.5679 282.566 49.0632C278.303 56.5586 276.158 64.8264 276.158 73.8952C276.158 82.9641 278.303 91.2033 282.566 98.6128C286.828 106.022 292.779 111.916 300.389 116.236C307.999 120.555 316.61 122.73 326.193 122.73ZM179.233 120.555H199.316C199.974 120.555 200.517 120.327 201.004 119.869C201.461 119.411 201.69 118.839 201.69 118.181L201.69 70.3192C201.69 63.2243 203.578 57.5885 207.412 53.3831C211.217 49.1777 216.137 47.0893 222.174 47.0893C227.809 47.0893 232.272 48.9202 235.562 52.6107C238.852 56.3011 240.483 61.4792 240.483 68.1736L240.483 118.21C240.483 118.867 240.712 119.44 241.17 119.897C241.627 120.355 242.171 120.584 242.857 120.584H262.94C263.598 120.584 264.142 120.355 264.628 119.897C265.086 119.44 265.315 118.867 265.315 118.21V64.2256C265.315 54.1269 263.37 46.1452 259.507 40.2805C255.645 34.4444 251.039 30.4106 245.718 28.1792C240.397 25.9477 235.19 24.832 230.07 24.832C223.776 24.832 217.968 26.0622 212.647 28.4653C207.326 30.897 203.693 34.0153 201.719 37.8202V2.37449C201.719 1.7165 201.49 1.17294 201.032 0.686599C200.574 0.228866 200.002 0 199.344 0L179.261 0C178.603 0 178.06 0.228866 177.573 0.686599C177.116 1.14433 176.887 1.7165 176.887 2.37449L176.887 118.21C176.887 118.867 177.116 119.44 177.573 119.897C178.031 120.327 178.575 120.555 179.233 120.555ZM681.966 122.73C686.944 122.73 691.579 121.871 695.841 120.155C700.104 118.438 703.566 116.35 706.198 113.861C708.83 111.372 710.46 109.055 711.118 106.966V118.21C711.118 118.867 711.347 119.44 711.805 119.897C712.262 120.355 712.806 120.584 713.493 120.584H733.576C734.234 120.584 734.777 120.355 735.264 119.897C735.721 119.44 735.95 118.867 735.95 118.21V2.37449C735.95 1.7165 735.721 1.17294 735.264 0.686599C734.806 0.228866 734.234 0 733.576 0L713.493 0C712.835 0 712.262 0.228866 711.805 0.686599C711.347 1.14433 711.118 1.7165 711.118 2.37449V39.1934C710.46 37.763 708.772 35.8748 706.083 33.5861C703.394 31.2975 699.99 29.2663 695.841 27.4926C691.693 25.7189 687.144 24.832 682.138 24.832C673.613 24.832 665.888 26.9776 658.994 31.2403C652.099 35.5029 646.635 41.3676 642.658 48.7772C638.653 56.1867 636.651 64.5117 636.651 73.695C636.651 82.8783 638.653 91.2319 642.658 98.7272C646.664 106.223 652.156 112.087 659.108 116.35C666.089 120.584 673.698 122.73 681.966 122.73Z" fill="white"/>
</g>
<defs>
<clipPath id="clip0_1304_107043">
<rect width="559.048" height="122.819" fill="white" transform="translate(176.891)"/>
</clipPath>
</defs>
</svg>
