<svg width="2678" height="984" viewBox="0 0 2678 984" fill="none" xmlns="http://www.w3.org/2000/svg">
<path d="M635.266 539.464L471.043 346.182C468.924 343.767 467.939 341.202 467.939 338.411C467.939 335.318 469.075 332.753 471.346 330.867C473.542 328.981 476.571 328 480.432 328H633.676C640.339 328 645.714 330.414 649.878 335.242L730.665 427.659C732.785 430.45 733.92 434.071 734.072 438.598C734.223 443.125 733.087 446.746 730.665 449.537L651.923 537.88C649.878 540.369 647.077 541.803 643.594 542.331C640.111 542.859 637.386 541.878 635.266 539.464Z" fill="#111827"/>
<path d="M541.987 644.404L370.42 446.444C367.998 443.653 366.862 440.031 367.013 435.58C367.241 431.054 368.528 427.433 370.95 424.641L426.221 360.214C429.023 357.121 431.975 355.536 435.08 355.536C438.865 355.536 442.045 357.121 444.468 360.214L617.095 562.851C619.139 565.265 620.199 567.83 620.199 570.395C620.199 573.036 619.215 575.525 617.095 577.939L558.72 644.404C556.6 647.195 553.95 648.553 550.618 648.553C547.287 648.553 544.41 647.195 541.987 644.404Z" fill="#111827"/>
<g clip-path="url(#clip0_6317_73506)">
<path d="M2178.87 597.115C2166.02 597.115 2154.69 593.992 2144.79 587.67C2134.89 581.347 2127.1 572.74 2121.36 561.695C2115.62 550.65 2112.74 538.158 2112.74 524.219C2112.74 510.203 2115.62 497.787 2121.36 486.971C2127.1 476.154 2134.89 467.775 2144.79 461.758C2154.69 455.816 2166.02 452.846 2178.87 452.846C2197.91 452.846 2213.78 459.473 2226.48 472.803C2239.17 486.133 2245.45 503.195 2245.45 524.219C2245.45 537.853 2242.57 550.269 2236.83 561.467C2231.09 572.664 2223.15 581.424 2212.87 587.67C2202.75 593.916 2191.34 597.115 2178.87 597.115ZM1906.21 654.244C1928.73 654.244 1949.29 649.14 1967.88 639.009C1986.47 628.879 2001.05 615.091 2011.86 597.572C2013.98 594.449 2013.07 591.783 2009.29 589.726L1966.59 567.179C1963.12 565.427 1960.32 566.342 1958.28 569.769C1954.12 577.843 1947.25 584.318 1937.73 589.193C1928.2 594.068 1918 596.506 1907.27 596.506C1888.23 596.506 1872.51 589.726 1860.19 576.015C1847.87 562.381 1841.75 544.861 1841.75 523.533C1841.75 501.824 1848.02 484.457 1860.49 471.355C1872.96 458.254 1888.61 451.703 1907.35 451.703C1920.19 451.703 1931.53 454.75 1941.43 460.92C1951.33 467.014 1958.58 475.088 1963.27 485.066C1967.95 495.045 1969.24 505.785 1967.2 517.363L1969.77 502.129H1832.91L1840.17 547.222H2021.76C2025.54 547.222 2027.8 545.318 2028.48 541.433C2028.86 535.111 2029.17 528.865 2029.54 522.543C2029.54 499.158 2024.4 477.525 2014.2 457.797C2004 438.068 1989.57 422.453 1970.98 411.103C1952.39 399.754 1930.85 394.041 1906.21 394.041C1881.96 394.041 1859.89 399.83 1840.09 411.332C1820.29 422.91 1804.87 438.601 1793.77 458.558C1782.66 478.515 1777.14 500.377 1777.14 524.142C1777.14 548.974 1782.58 571.369 1793.54 591.25C1804.5 611.207 1819.76 626.67 1839.33 637.638C1858.91 648.759 1881.2 654.244 1906.21 654.244ZM1604.39 654.777C1617.54 654.777 1629.78 652.492 1641.04 647.922C1652.3 643.351 1661.44 637.791 1668.4 631.164C1675.35 624.537 1679.66 618.367 1681.39 612.806V642.742C1681.39 644.494 1682 646.017 1683.21 647.236C1684.42 648.455 1685.93 649.064 1687.67 649.064H1740.72C1742.45 649.064 1743.89 648.455 1745.17 647.236C1746.38 646.017 1746.99 644.494 1746.99 642.742V334.322C1746.99 332.57 1746.38 331.123 1745.17 329.828C1743.97 328.609 1742.45 328 1740.72 328H1687.67C1685.93 328 1684.42 328.609 1683.21 329.828C1682 331.047 1681.39 332.57 1681.39 334.322V432.355C1679.66 428.547 1675.2 423.519 1668.09 417.426C1660.99 411.332 1652 405.924 1641.04 401.201C1630.08 396.478 1618.07 394.117 1604.84 394.117C1582.32 394.117 1561.92 399.83 1543.71 411.18C1525.49 422.529 1511.06 438.144 1500.48 457.873C1489.9 477.601 1484.61 499.767 1484.61 524.219C1484.61 548.67 1489.9 570.912 1500.48 590.869C1511.06 610.826 1525.57 626.441 1543.93 637.791C1562.37 649.064 1582.55 654.777 1604.39 654.777ZM1614.82 597.115C1602.35 597.115 1591.01 593.992 1580.96 587.67C1570.91 581.347 1562.98 572.74 1557.31 561.695C1551.56 550.65 1548.69 538.158 1548.69 524.219C1548.69 510.203 1551.56 497.787 1557.31 486.971C1563.05 476.154 1570.91 467.775 1580.96 461.758C1591.01 455.816 1602.27 452.846 1614.82 452.846C1633.86 452.846 1649.73 459.473 1662.43 472.803C1675.12 486.133 1681.39 503.195 1681.39 524.219C1681.39 537.853 1678.52 550.269 1672.78 561.467C1667.04 572.664 1659.1 581.424 1648.82 587.67C1638.62 593.916 1627.29 597.115 1614.82 597.115ZM1396.19 648.988H1449.24C1450.98 648.988 1452.42 648.379 1453.7 647.16C1454.91 645.941 1455.52 644.418 1455.52 642.666V334.322C1455.52 332.57 1454.91 331.123 1453.7 329.828C1452.49 328.609 1450.98 328 1449.24 328H1396.19C1394.46 328 1393.02 328.609 1391.74 329.828C1390.53 331.047 1389.92 332.57 1389.92 334.322V642.742C1389.92 644.494 1390.53 646.017 1391.74 647.236C1393.02 648.379 1394.46 648.988 1396.19 648.988ZM1228.66 596.049C1209.23 596.049 1192.99 589.498 1179.99 576.396C1166.99 563.295 1160.49 546.08 1160.49 524.752C1160.49 503.424 1166.99 486.133 1179.99 472.803C1192.99 459.549 1209.23 452.846 1228.66 452.846C1248.08 452.846 1264.32 459.473 1277.32 472.803C1290.32 486.133 1296.82 503.424 1296.82 524.752C1296.82 546.08 1290.4 563.295 1277.55 576.396C1264.78 589.498 1248.46 596.049 1228.66 596.049ZM1228.66 654.777C1253.97 654.777 1276.72 648.988 1296.82 637.486C1316.92 625.908 1332.64 610.293 1343.9 590.564C1355.16 570.836 1360.83 548.898 1360.83 524.752C1360.83 500.605 1355.16 478.592 1343.9 458.635C1332.64 438.678 1316.92 422.986 1296.82 411.408C1276.72 399.906 1253.97 394.117 1228.66 394.117C1203.34 394.117 1180.59 399.906 1160.49 411.408C1140.39 422.986 1124.67 438.678 1113.41 458.635C1102.15 478.592 1096.48 500.605 1096.48 524.752C1096.48 548.898 1102.15 570.836 1113.41 590.564C1124.67 610.293 1140.39 625.984 1160.49 637.486C1180.59 648.988 1203.34 654.777 1228.66 654.777ZM840.454 648.988H893.504C895.242 648.988 896.678 648.379 897.963 647.16C899.172 645.941 899.777 644.418 899.777 642.666V515.23C899.777 496.34 904.764 481.334 914.891 470.137C924.941 458.939 937.939 453.379 953.885 453.379C968.772 453.379 980.561 458.254 989.251 468.08C997.942 477.906 1002.25 491.693 1002.25 509.517V642.742C1002.25 644.494 1002.85 646.017 1004.06 647.236C1005.27 648.455 1006.71 649.064 1008.52 649.064H1061.57C1063.31 649.064 1064.75 648.455 1066.03 647.236C1067.24 646.017 1067.84 644.494 1067.84 642.742V499.006C1067.84 472.117 1062.7 450.865 1052.5 435.25C1042.3 419.711 1030.13 408.971 1016.08 403.029C1002.02 397.088 988.269 394.117 974.742 394.117C958.116 394.117 942.776 397.392 928.72 403.791C914.664 410.266 905.067 418.568 899.852 428.699V334.322C899.852 332.57 899.248 331.123 898.039 329.828C896.829 328.609 895.318 328 893.58 328H840.53C838.792 328 837.356 328.609 836.071 329.828C834.862 331.047 834.258 332.57 834.258 334.322V642.742C834.258 644.494 834.862 646.017 836.071 647.236C837.281 648.379 838.716 648.988 840.454 648.988ZM2168.44 654.777C2181.59 654.777 2193.83 652.492 2205.09 647.922C2216.35 643.351 2225.5 637.791 2232.45 631.164C2239.4 624.537 2243.71 618.367 2245.45 612.806V642.742C2245.45 644.494 2246.05 646.017 2247.26 647.236C2248.47 648.455 2249.9 649.064 2251.72 649.064H2304.77C2306.51 649.064 2307.94 648.455 2309.23 647.236C2310.44 646.017 2311.04 644.494 2311.04 642.742V334.322C2311.04 332.57 2310.44 331.123 2309.23 329.828C2308.02 328.609 2306.51 328 2304.77 328H2251.72C2249.98 328 2248.47 328.609 2247.26 329.828C2246.05 331.047 2245.45 332.57 2245.45 334.322V432.355C2243.71 428.547 2239.25 423.519 2232.14 417.426C2225.04 411.332 2216.05 405.924 2205.09 401.201C2194.13 396.478 2182.12 394.117 2168.89 394.117C2146.37 394.117 2125.97 399.83 2107.76 411.18C2089.55 422.529 2075.11 438.144 2064.61 457.873C2054.03 477.601 2048.74 499.767 2048.74 524.219C2048.74 548.67 2054.03 570.912 2064.61 590.869C2075.19 610.826 2089.7 626.441 2108.06 637.791C2126.5 649.064 2146.6 654.777 2168.44 654.777Z" fill="#111827"/>
</g>
<defs>
<clipPath id="clip0_6317_73506">
<rect width="1476.74" height="327.016" fill="white" transform="translate(834.258 328)"/>
</clipPath>
</defs>
</svg>
