<svg xmlns="http://www.w3.org/2000/svg" width="1600" height="1000" viewBox="0 0 1600 1000" fill="none">
  <rect width="1600" height="1000" fill="#F5F8FF"/>
  <rect x="42" y="34" width="1516" height="932" rx="28" fill="#FFFFFF" stroke="#DCE6F8"/>

  <text x="92" y="94" fill="#16315C" font-size="30" font-family="Arial, sans-serif" font-weight="700">Isaak asistente (demo)</text>
  <text x="92" y="126" fill="#5D7398" font-size="15" font-family="Arial, sans-serif">Mensajes proactivos y chat contextual por seccion.</text>

  <rect x="92" y="162" width="1000" height="760" rx="22" fill="#FBFDFF" stroke="#E2EBFA"/>
  <text x="126" y="206" fill="#415A84" font-size="13" font-family="Arial, sans-serif" font-weight="700">PANEL CLIENTE · FACTURAS</text>
  <rect x="126" y="228" width="934" height="82" rx="14" fill="#FFFFFF" stroke="#E6EDFB"/>
  <text x="154" y="275" fill="#102A53" font-size="16" font-family="Arial, sans-serif">VF-2026-0140 · Luna Tech · 980,00 EUR · Pendiente</text>

  <rect x="126" y="324" width="934" height="82" rx="14" fill="#FFFFFF" stroke="#E6EDFB"/>
  <text x="154" y="371" fill="#102A53" font-size="16" font-family="Arial, sans-serif">VF-2026-0141 · Eco Servicios · 410,00 EUR · Cobrada</text>

  <rect x="126" y="420" width="934" height="82" rx="14" fill="#FFFFFF" stroke="#E6EDFB"/>
  <text x="154" y="467" fill="#102A53" font-size="16" font-family="Arial, sans-serif">VF-2026-0142 · Atlas Studio · 2.850,00 EUR · Cobrada</text>

  <rect x="1120" y="162" width="400" height="760" rx="22" fill="#F7FAFF" stroke="#E2EBFA"/>
  <text x="1156" y="206" fill="#16315C" font-size="20" font-family="Arial, sans-serif" font-weight="700">Burbujas proactivas</text>

  <rect x="1156" y="232" width="328" height="118" rx="16" fill="#EAF1FF" stroke="#D7E5FF"/>
  <text x="1180" y="266" fill="#275BC9" font-size="14" font-family="Arial, sans-serif" font-weight="700">Facturas al dia</text>
  <text x="1180" y="294" fill="#4F648A" font-size="13" font-family="Arial, sans-serif">Revisa 1 factura pendiente de cobro</text>
  <text x="1180" y="318" fill="#275BC9" font-size="13" font-family="Arial, sans-serif">Abrir facturas -></text>

  <rect x="1156" y="366" width="328" height="118" rx="16" fill="#FFF7DB" stroke="#F2DF99"/>
  <text x="1180" y="400" fill="#A67800" font-size="14" font-family="Arial, sans-serif" font-weight="700">Recordatorio fiscal</text>
  <text x="1180" y="428" fill="#6A5B2E" font-size="13" font-family="Arial, sans-serif">Modelo IVA en 12 dias. Preparamos</text>
  <text x="1180" y="452" fill="#A67800" font-size="13" font-family="Arial, sans-serif">Ver calendario -></text>

  <rect x="1156" y="500" width="328" height="118" rx="16" fill="#EAF8EE" stroke="#CFEBD7"/>
  <text x="1180" y="534" fill="#3F935E" font-size="14" font-family="Arial, sans-serif" font-weight="700">Estado positivo</text>
  <text x="1180" y="562" fill="#4F648A" font-size="13" font-family="Arial, sans-serif">9/10 facturas ya validadas AEAT</text>
  <text x="1180" y="586" fill="#3F935E" font-size="13" font-family="Arial, sans-serif">Ver detalle -></text>

  <rect x="1156" y="642" width="328" height="244" rx="16" fill="#FFFFFF" stroke="#DDE6F8"/>
  <text x="1180" y="680" fill="#16315C" font-size="16" font-family="Arial, sans-serif" font-weight="700">Chat de Isaak</text>
  <rect x="1180" y="700" width="280" height="54" rx="12" fill="#F2F7FF"/>
  <text x="1194" y="730" fill="#102A53" font-size="13" font-family="Arial, sans-serif">Resumen rapido de febrero</text>
  <rect x="1180" y="764" width="280" height="74" rx="12" fill="#EEF5FF"/>
  <text x="1194" y="792" fill="#275BC9" font-size="13" font-family="Arial, sans-serif">Ventas 4.230,00 EUR</text>
  <text x="1194" y="812" fill="#275BC9" font-size="13" font-family="Arial, sans-serif">Gastos 1.353,60 EUR</text>
  <text x="1194" y="832" fill="#275BC9" font-size="13" font-family="Arial, sans-serif">Beneficio 2.876,40 EUR</text>

  <circle cx="1470" cy="876" r="48" fill="#2563EB"/>
  <text x="1447" y="885" fill="#FFFFFF" font-size="20" font-family="Arial, sans-serif" font-weight="700">IA</text>
</svg>
