<svg xmlns="http://www.w3.org/2000/svg" viewBox="0 0 800 220" role="img">
  <rect width="800" height="220" fill="#F8FAFC"/>
  
  <defs>
    <linearGradient id="vf-grad" x1="0%" y1="0%" x2="100%" y2="100%">
      <stop offset="0%" stop-color="#1D4ED8"/>
      <stop offset="100%" stop-color="#38BDF8"/>
    </linearGradient>
  </defs>
  <g transform="translate(20,20)">
    <path d="M80 0c-20 0-40 13-40 33 0 24 26 46 35 52a4 4 0 0 0 5 0c9-6 35-28 35-52 0-20-20-33-40-33z" fill="url(#vf-grad)"/>
    <path d="M65 50l-7 7 11 11c1 1 3 1 4 0l17-17-7-7-11 11-7-5z" fill="#F8FAFC"/>
  </g>

  <text x="170" y="120" font-family="Poppins, Arial, sans-serif" font-weight="600" font-size="56" fill="#1D4ED8">Veri</text>
  <text x="290" y="120" font-family="Poppins, Arial, sans-serif" font-weight="600" font-size="56" fill="#38BDF8">*</text>
  <text x="320" y="120" font-family="Inter, Arial, sans-serif" font-weight="500" font-size="56" fill="#0F172A">Factu Business</text>
</svg>
