<svg width="706" height="860" viewBox="0 0 706 860" fill="none" xmlns="http://www.w3.org/2000/svg">
  <rect width="706" height="860" rx="36" fill="#FFF7F7"/>
  <rect x="24" y="24" width="658" height="812" rx="32" fill="white"/>
  <rect x="56" y="56" width="594" height="192" rx="30" fill="#111111"/>
  <rect x="86" y="88" width="128" height="12" rx="6" fill="white" fill-opacity="0.5"/>
  <rect x="86" y="114" width="252" height="18" rx="9" fill="white"/>
  <rect x="86" y="150" width="168" height="10" rx="5" fill="white" fill-opacity="0.35"/>
  <rect x="474" y="86" width="146" height="132" rx="24" fill="#FF5460"/>
  <rect x="500" y="112" width="94" height="12" rx="6" fill="white" fill-opacity="0.8"/>
  <rect x="500" y="140" width="68" height="36" rx="18" fill="white"/>

  <rect x="56" y="276" width="594" height="230" rx="30" fill="#F8FAFC"/>
  <rect x="82" y="306" width="116" height="12" rx="6" fill="#CBD5E1"/>
  <rect x="82" y="334" width="192" height="16" rx="8" fill="#111111"/>
  <rect x="82" y="372" width="542" height="54" rx="18" fill="white"/>
  <rect x="100" y="391" width="54" height="16" rx="8" fill="#FF5460"/>
  <rect x="172" y="393" width="168" height="12" rx="6" fill="#111111"/>
  <rect x="82" y="442" width="542" height="54" rx="18" fill="white"/>
  <rect x="100" y="461" width="54" height="16" rx="8" fill="#111111"/>
  <rect x="172" y="463" width="142" height="12" rx="6" fill="#111111"/>

  <rect x="56" y="534" width="286" height="270" rx="30" fill="#FFF0F1"/>
  <rect x="364" y="534" width="286" height="270" rx="30" fill="#111111"/>
  <rect x="84" y="564" width="100" height="12" rx="6" fill="#FF5460" fill-opacity="0.3"/>
  <rect x="84" y="590" width="148" height="16" rx="8" fill="#111111"/>
  <circle cx="199" cy="710" r="72" fill="#FFD7DB"/>
  <path d="M199 638C238.765 638 271 670.235 271 710H199V638Z" fill="#FF5460"/>
  <path d="M271 710C271 749.765 238.765 782 199 782C159.235 782 127 749.765 127 710H199H271Z" fill="#111111"/>

  <rect x="392" y="564" width="112" height="12" rx="6" fill="white" fill-opacity="0.45"/>
  <rect x="392" y="590" width="154" height="16" rx="8" fill="white"/>
  <rect x="392" y="638" width="230" height="42" rx="18" fill="white" fill-opacity="0.08"/>
  <rect x="392" y="694" width="230" height="42" rx="18" fill="white" fill-opacity="0.08"/>
  <rect x="392" y="750" width="176" height="28" rx="14" fill="#FF5460"/>
</svg>
